<?xml version="1.0" encoding="UTF-8" standalone="no"?>
<svg width="6px" height="24px" viewBox="0 0 6 24" version="1.1" xmlns="http://www.w3.org/2000/svg" xmlns:xlink="http://www.w3.org/1999/xlink" xmlns:sketch="http://www.bohemiancoding.com/sketch/ns">
    <!-- Generator: Sketch 3.3.3 (12072) - http://www.bohemiancoding.com/sketch -->
    <title>More</title>
    <desc>Created with Sketch.</desc>
    <defs>
        <filter x="-50%" y="-50%" width="200%" height="200%" filterUnits="objectBoundingBox" id="filter-1">
            <feOffset dx="0" dy="0" in="SourceAlpha" result="shadowOffsetOuter1"></feOffset>
            <feGaussianBlur stdDeviation="2" in="shadowOffsetOuter1" result="shadowBlurOuter1"></feGaussianBlur>
            <feColorMatrix values="0 0 0 0 0   0 0 0 0 0   0 0 0 0 0  0 0 0 0.14 0" in="shadowBlurOuter1" type="matrix" result="shadowMatrixOuter1"></feColorMatrix>
            <feMerge>
                <feMergeNode in="shadowMatrixOuter1"></feMergeNode>
                <feMergeNode in="SourceGraphic"></feMergeNode>
            </feMerge>
        </filter>
    </defs>
    <g id="Components" stroke="none" stroke-width="1" fill="none" fill-rule="evenodd" sketch:type="MSPage">
        <g id="Toolbar" sketch:type="MSArtboardGroup" transform="translate(-336.000000, -14.000000)">
            <g sketch:type="MSLayerGroup">
                <rect id="Box" stroke="#CDCDCD" fill="#F0F0F0" filter="url(#filter-1)" sketch:type="MSShapeGroup" x="0" y="0" width="360" height="50"></rect>
                <g id="Buttons" transform="translate(26.000000, 10.000000)" fill="#63B0CD" sketch:type="MSShapeGroup">
                    <path d="M313,10 C314.656854,10 316,8.65685425 316,7 C316,5.34314575 314.656854,4 313,4 C311.343146,4 310,5.34314575 310,7 C310,8.65685425 311.343146,10 313,10 Z M313,19 C314.656854,19 316,17.6568542 316,16 C316,14.3431458 314.656854,13 313,13 C311.343146,13 310,14.3431458 310,16 C310,17.6568542 311.343146,19 313,19 Z M313,28 C314.656854,28 316,26.6568542 316,25 C316,23.3431458 314.656854,22 313,22 C311.343146,22 310,23.3431458 310,25 C310,26.6568542 311.343146,28 313,28 Z" id="More"></path>
                </g>
            </g>
        </g>
    </g>
</svg>