<svg height="640" width="350"><path stroke-width="1.51" stroke="#7c94a8" fill="#7c94a8" d="M56,682L-19,680L104,689Z"></path><path stroke-width="1.51" stroke="#e0f3d9" fill="#e0f3d9" d="M-25,-49L56,-44L129,-50Z"></path><path stroke-width="1.51" stroke="#5a88a3" fill="#5a88a3" d="M144,684L104,689L203,686Z"></path><path stroke-width="1.51" stroke="#b8e1da" fill="#b8e1da" d="M129,-50L171,-47L259,-48Z"></path><path stroke-width="1.51" stroke="#4681a7" fill="#4681a7" d="M203,686L104,689L281,690Z"></path><path stroke-width="1.51" stroke="#357aab" fill="#357aab" d="M281,690L104,689L312,692Z"></path><path stroke-width="1.51" stroke="#9cc0d5" fill="#9cc0d5" d="M259,-48L292,-34L354,-39Z"></path><path stroke-width="1.51" stroke="#2f7fb4" fill="#2f7fb4" d="M391,409L368,443L393,463Z"></path><path stroke-width="1.51" stroke="#7f9db1" fill="#7f9db1" d="M389,103L371,118L396,162Z"></path><path stroke-width="1.51" stroke="#3481b3" fill="#3481b3" d="M391,409L393,463L399,363Z"></path><path stroke-width="1.51" stroke="#7f9aaf" fill="#7f9aaf" d="M389,103L396,162L400,74Z"></path><path stroke-width="1.51" stroke="#97b5d0" fill="#97b5d0" d="M259,-48L354,-39L400,-44Z"></path><path stroke-width="1.51" stroke="#2270a9" fill="#2270a9" d="M393,463L394,495L401,525Z"></path><path stroke-width="1.51" stroke="#899db9" fill="#899db9" d="M400,-44L400,4L404,37Z"></path><path stroke-width="1.51" stroke="#1868a6" fill="#1868a6" d="M401,525L366,539L407,574Z"></path><path stroke-width="1.51" stroke="#7e98ad" fill="#7e98ad" d="M404,37L400,74L407,190Z"></path><path stroke-width="1.51" stroke="#7a97aa" fill="#7a97aa" d="M400,74L396,162L407,190Z"></path><path stroke-width="1.51" stroke="#0a599c" fill="#0a599c" d="M368,608L397,653L408,608Z"></path><path stroke-width="1.51" stroke="#2e7aae" fill="#2e7aae" d="M393,463L401,525L409,326Z"></path><path stroke-width="1.51" stroke="#3e82ae" fill="#3e82ae" d="M399,363L393,463L409,326Z"></path><path stroke-width="1.51" stroke="#2671a8" fill="#2671a8" d="M401,525L407,574L409,326Z"></path><path stroke-width="1.51" stroke="#0a5598" fill="#0a5598" d="M371,675L312,692L413,678Z"></path><path stroke-width="1.51" stroke="#0a4f91" fill="#0a4f91" d="M408,608L397,653L413,678Z"></path><path stroke-width="1.51" stroke="#0a5496" fill="#0a5496" d="M407,574L408,608L413,678Z"></path><path stroke-width="1.51" stroke="#5d90aa" fill="#5d90aa" d="M360,270L400,300L415,269Z"></path><path stroke-width="1.51" stroke="#6393aa" fill="#6393aa" d="M393,231L360,270L415,269Z"></path><path stroke-width="1.51" stroke="#688fa2" fill="#688fa2" d="M407,190L393,231L415,269Z"></path><path stroke-width="1.51" stroke="#7593a5" fill="#7593a5" d="M404,37L407,190L415,269Z"></path><path stroke-width="1.51" stroke="#5589a6" fill="#5589a6" d="M400,300L409,326L415,269Z"></path><path stroke-width="1.51" stroke="#1e69a2" fill="#1e69a2" d="M407,574L413,678L415,269Z"></path><path stroke-width="1.51" stroke="#3b7eab" fill="#3b7eab" d="M409,326L407,574L415,269Z"></path><path stroke-width="1.51" stroke="#0c5ea0" fill="#0c5ea0" d="M407,574L368,608L408,608Z"></path><path stroke-width="1.51" stroke="#0a4e91" fill="#0a4e91" d="M397,653L371,675L413,678Z"></path><path stroke-width="1.51" stroke="#719daf" fill="#719daf" d="M372,173L350,217L393,231Z"></path><path stroke-width="1.51" stroke="#095c9f" fill="#095c9f" d="M368,608L358,642L397,653Z"></path><path stroke-width="1.51" stroke="#3f87b4" fill="#3f87b4" d="M364,384L391,409L399,363Z"></path><path stroke-width="1.51" stroke="#5d96b1" fill="#5d96b1" d="M360,270L361,287L400,300Z"></path><path stroke-width="1.51" stroke="#8ea4c2" fill="#8ea4c2" d="M354,-39L400,4L400,-44Z"></path><path stroke-width="1.51" stroke="#849db6" fill="#849db6" d="M372,65L400,74L404,37Z"></path><path stroke-width="1.51" stroke="#1469a9" fill="#1469a9" d="M366,539L364,578L407,574Z"></path><path stroke-width="1.51" stroke="#0e64a6" fill="#0e64a6" d="M364,578L368,608L407,574Z"></path><path stroke-width="1.51" stroke="#7598ab" fill="#7598ab" d="M396,162L372,173L407,190Z"></path><path stroke-width="1.51" stroke="#7196a9" fill="#7196a9" d="M372,173L393,231L407,190Z"></path><path stroke-width="1.51" stroke="#508dad" fill="#508dad" d="M400,300L361,343L409,326Z"></path><path stroke-width="1.51" stroke="#4a8bb0" fill="#4a8bb0" d="M361,343L399,363L409,326Z"></path><path stroke-width="1.51" stroke="#88a0bb" fill="#88a0bb" d="M400,4L363,31L404,37Z"></path><path stroke-width="1.51" stroke="#3285b9" fill="#3285b9" d="M363,424L368,443L391,409Z"></path><path stroke-width="1.51" stroke="#2575ae" fill="#2575ae" d="M393,463L375,491L394,495Z"></path><path stroke-width="1.51" stroke="#8fa8c5" fill="#8fa8c5" d="M354,-39L356,11L400,4Z"></path><path stroke-width="1.51" stroke="#87a2bc" fill="#87a2bc" d="M363,31L372,65L404,37Z"></path><path stroke-width="1.51" stroke="#7ea1b4" fill="#7ea1b4" d="M371,118L350,148L396,162Z"></path><path stroke-width="1.51" stroke="#5594b3" fill="#5594b3" d="M361,287L361,343L400,300Z"></path><path stroke-width="1.51" stroke="#839eb5" fill="#839eb5" d="M372,65L389,103L400,74Z"></path><path stroke-width="1.51" stroke="#8ba6c2" fill="#8ba6c2" d="M356,11L363,31L400,4Z"></path><path stroke-width="1.51" stroke="#1f70aa" fill="#1f70aa" d="M394,495L375,491L401,525Z"></path><path stroke-width="1.51" stroke="#1d71ac" fill="#1d71ac" d="M375,491L366,539L401,525Z"></path><path stroke-width="1.51" stroke="#7aa0b2" fill="#7aa0b2" d="M350,148L372,173L396,162Z"></path><path stroke-width="1.51" stroke="#468db6" fill="#468db6" d="M361,343L364,384L399,363Z"></path><path stroke-width="1.51" stroke="#0a579a" fill="#0a579a" d="M358,642L371,675L397,653Z"></path><path stroke-width="1.51" stroke="#6a9db2" fill="#6a9db2" d="M338,234L360,270L393,231Z"></path><path stroke-width="1.51" stroke="#6ea0b1" fill="#6ea0b1" d="M350,217L338,234L393,231Z"></path><path stroke-width="1.51" stroke="#297cb3" fill="#297cb3" d="M368,443L375,491L393,463Z"></path><path stroke-width="1.51" stroke="#83a1b7" fill="#83a1b7" d="M372,65L371,118L389,103Z"></path><path stroke-width="1.51" stroke="#3789ba" fill="#3789ba" d="M364,384L363,424L391,409Z"></path><path stroke-width="1.51" stroke="#579cb9" fill="#579cb9" d="M332,302L361,343L361,287Z"></path><path stroke-width="1.51" stroke="#4593bd" fill="#4593bd" d="M361,343L340,382L364,384Z"></path><path stroke-width="1.51" stroke="#1671b1" fill="#1671b1" d="M333,565L364,578L366,539Z"></path><path stroke-width="1.51" stroke="#217cb6" fill="#217cb6" d="M328,492L331,538L366,539Z"></path><path stroke-width="1.51" stroke="#2e89bd" fill="#2e89bd" d="M326,449L328,492L368,443Z"></path><path stroke-width="1.51" stroke="#77a6b6" fill="#77a6b6" d="M323,191L350,217L372,173Z"></path><path stroke-width="1.51" stroke="#86a9be" fill="#86a9be" d="M323,106L371,118L372,65Z"></path><path stroke-width="1.51" stroke="#8ab0c3" fill="#8ab0c3" d="M316,65L323,106L372,65Z"></path><path stroke-width="1.51" stroke="#2881b9" fill="#2881b9" d="M368,443L328,492L375,491Z"></path><path stroke-width="1.51" stroke="#1f7bb6" fill="#1f7bb6" d="M328,492L366,539L375,491Z"></path><path stroke-width="1.51" stroke="#3d90bf" fill="#3d90bf" d="M340,382L363,424L364,384Z"></path><path stroke-width="1.51" stroke="#7ba8b8" fill="#7ba8b8" d="M339,160L323,191L372,173Z"></path><path stroke-width="1.51" stroke="#7da6b8" fill="#7da6b8" d="M350,148L339,160L372,173Z"></path><path stroke-width="1.51" stroke="#8babc4" fill="#8babc4" d="M363,31L340,25L372,65Z"></path><path stroke-width="1.51" stroke="#8cafc5" fill="#8cafc5" d="M340,25L316,65L372,65Z"></path><path stroke-width="1.51" stroke="#98bad1" fill="#98bad1" d="M292,-34L319,-26L354,-39Z"></path><path stroke-width="1.51" stroke="#94b2cd" fill="#94b2cd" d="M354,-39L319,-26L356,11Z"></path><path stroke-width="1.51" stroke="#3b93c2" fill="#3b93c2" d="M340,382L323,409L363,424Z"></path><path stroke-width="1.51" stroke="#0d6bae" fill="#0d6bae" d="M364,578L327,607L368,608Z"></path><path stroke-width="1.51" stroke="#0d67a9" fill="#0d67a9" d="M327,607L358,642L368,608Z"></path><path stroke-width="1.51" stroke="#0c5fa2" fill="#0c5fa2" d="M358,642L331,639L371,675Z"></path><path stroke-width="1.51" stroke="#1260a0" fill="#1260a0" d="M331,639L312,692L371,675Z"></path><path stroke-width="1.51" stroke="#84abbc" fill="#84abbc" d="M323,106L350,148L371,118Z"></path><path stroke-width="1.51" stroke="#94b5cd" fill="#94b5cd" d="M319,-26L322,4L356,11Z"></path><path stroke-width="1.51" stroke="#1268a9" fill="#1268a9" d="M327,607L331,639L358,642Z"></path><path stroke-width="1.51" stroke="#68a2b7" fill="#68a2b7" d="M338,234L333,266L360,270Z"></path><path stroke-width="1.51" stroke="#549ebc" fill="#549ebc" d="M332,302L321,331L361,343Z"></path><path stroke-width="1.51" stroke="#1c77b4" fill="#1c77b4" d="M331,538L333,565L366,539Z"></path><path stroke-width="1.51" stroke="#318abe" fill="#318abe" d="M363,424L326,449L368,443Z"></path><path stroke-width="1.51" stroke="#1671b1" fill="#1671b1" d="M333,565L327,607L364,578Z"></path><path stroke-width="1.51" stroke="#8dadc7" fill="#8dadc7" d="M356,11L340,25L363,31Z"></path><path stroke-width="1.51" stroke="#4c9abd" fill="#4c9abd" d="M321,331L340,382L361,343Z"></path><path stroke-width="1.51" stroke="#3691c1" fill="#3691c1" d="M323,409L326,449L363,424Z"></path><path stroke-width="1.51" stroke="#629fb6" fill="#629fb6" d="M360,270L333,266L361,287Z"></path><path stroke-width="1.51" stroke="#60a0b9" fill="#60a0b9" d="M333,266L332,302L361,287Z"></path><path stroke-width="1.51" stroke="#91b2ca" fill="#91b2ca" d="M322,4L340,25L356,11Z"></path><path stroke-width="1.51" stroke="#85b2be" fill="#85b2be" d="M323,106L301,158L339,160Z"></path><path stroke-width="1.51" stroke="#74a8b6" fill="#74a8b6" d="M323,191L338,234L350,217Z"></path><path stroke-width="1.51" stroke="#83adbc" fill="#83adbc" d="M323,106L339,160L350,148Z"></path><path stroke-width="1.51" stroke="#2886bc" fill="#2886bc" d="M328,492L288,501L331,538Z"></path><path stroke-width="1.51" stroke="#2989bd" fill="#2989bd" d="M288,501L284,521L331,538Z"></path><path stroke-width="1.51" stroke="#77aeb9" fill="#77aeb9" d="M323,191L291,216L338,234Z"></path><path stroke-width="1.51" stroke="#6caab9" fill="#6caab9" d="M287,259L333,266L338,234Z"></path><path stroke-width="1.51" stroke="#7fb0bc" fill="#7fb0bc" d="M301,158L323,191L339,160Z"></path><path stroke-width="1.51" stroke="#439cc4" fill="#439cc4" d="M290,385L323,409L340,382Z"></path><path stroke-width="1.51" stroke="#4ba0c2" fill="#4ba0c2" d="M321,331L290,385L340,382Z"></path><path stroke-width="1.51" stroke="#92b7cc" fill="#92b7cc" d="M322,4L297,42L340,25Z"></path><path stroke-width="1.51" stroke="#90b7c9" fill="#90b7c9" d="M297,42L316,65L340,25Z"></path><path stroke-width="1.51" stroke="#8ab8c2" fill="#8ab8c2" d="M288,116L301,158L323,106Z"></path><path stroke-width="1.51" stroke="#8db7c6" fill="#8db7c6" d="M316,65L298,85L323,106Z"></path><path stroke-width="1.51" stroke="#1e7ab5" fill="#1e7ab5" d="M286,559L327,607L333,565Z"></path><path stroke-width="1.51" stroke="#66a9bb" fill="#66a9bb" d="M287,259L332,302L333,266Z"></path><path stroke-width="1.51" stroke="#72b0ba" fill="#72b0ba" d="M291,216L287,259L338,234Z"></path><path stroke-width="1.51" stroke="#53a7c3" fill="#53a7c3" d="M293,326L290,385L321,331Z"></path><path stroke-width="1.51" stroke="#3998c5" fill="#3998c5" d="M323,409L278,438L326,449Z"></path><path stroke-width="1.51" stroke="#2f8dbf" fill="#2f8dbf" d="M326,449L288,501L328,492Z"></path><path stroke-width="1.51" stroke="#1b71ad" fill="#1b71ad" d="M327,607L278,635L331,639Z"></path><path stroke-width="1.51" stroke="#1c6ca7" fill="#1c6ca7" d="M278,635L312,692L331,639Z"></path><path stroke-width="1.51" stroke="#58a6bf" fill="#58a6bf" d="M293,326L321,331L332,302Z"></path><path stroke-width="1.51" stroke="#65aebf" fill="#65aebf" d="M287,259L278,298L332,302Z"></path><path stroke-width="1.51" stroke="#227eb7" fill="#227eb7" d="M331,538L286,559L333,565Z"></path><path stroke-width="1.51" stroke="#217cb7" fill="#217cb7" d="M286,559L275,609L327,607Z"></path><path stroke-width="1.51" stroke="#5eabc0" fill="#5eabc0" d="M278,298L293,326L332,302Z"></path><path stroke-width="1.51" stroke="#216da7" fill="#216da7" d="M278,635L281,690L312,692Z"></path><path stroke-width="1.51" stroke="#3595c3" fill="#3595c3" d="M278,438L288,501L326,449Z"></path><path stroke-width="1.51" stroke="#2785bb" fill="#2785bb" d="M284,521L286,559L331,538Z"></path><path stroke-width="1.51" stroke="#2078b3" fill="#2078b3" d="M275,609L278,635L327,607Z"></path><path stroke-width="1.51" stroke="#9bc1d4" fill="#9bc1d4" d="M292,-34L274,-3L319,-26Z"></path><path stroke-width="1.51" stroke="#98bed1" fill="#98bed1" d="M319,-26L274,-3L322,4Z"></path><path stroke-width="1.51" stroke="#96bfd0" fill="#96bfd0" d="M274,-3L297,42L322,4Z"></path><path stroke-width="1.51" stroke="#44a2c8" fill="#44a2c8" d="M290,385L275,401L323,409Z"></path><path stroke-width="1.51" stroke="#40a1c9" fill="#40a1c9" d="M275,401L278,438L323,409Z"></path><path stroke-width="1.51" stroke="#80b6be" fill="#80b6be" d="M301,158L281,187L323,191Z"></path><path stroke-width="1.51" stroke="#7cb5bd" fill="#7cb5bd" d="M281,187L291,216L323,191Z"></path><path stroke-width="1.51" stroke="#8cb9c5" fill="#8cb9c5" d="M298,85L288,116L323,106Z"></path><path stroke-width="1.51" stroke="#90bbc9" fill="#90bbc9" d="M297,42L298,85L316,65Z"></path><path stroke-width="1.51" stroke="#2874ac" fill="#2874ac" d="M278,635L251,670L281,690Z"></path><path stroke-width="1.51" stroke="#2b86bc" fill="#2b86bc" d="M264,560L275,609L286,559Z"></path><path stroke-width="1.51" stroke="#3c9dc8" fill="#3c9dc8" d="M278,438L259,444L288,501Z"></path><path stroke-width="1.51" stroke="#55b0cb" fill="#55b0cb" d="M249,331L253,385L290,385Z"></path><path stroke-width="1.51" stroke="#58afc7" fill="#58afc7" d="M249,331L290,385L293,326Z"></path><path stroke-width="1.51" stroke="#94c1cc" fill="#94c1cc" d="M297,42L257,73L298,85Z"></path><path stroke-width="1.51" stroke="#8cbfc5" fill="#8cbfc5" d="M288,116L251,143L301,158Z"></path><path stroke-width="1.51" stroke="#88bfc3" fill="#88bfc3" d="M251,143L281,187L301,158Z"></path><path stroke-width="1.51" stroke="#79babf" fill="#79babf" d="M247,229L287,259L291,216Z"></path><path stroke-width="1.51" stroke="#9ac7d3" fill="#9ac7d3" d="M274,-3L243,48L297,42Z"></path><path stroke-width="1.51" stroke="#91c1ca" fill="#91c1ca" d="M257,73L288,116L298,85Z"></path><path stroke-width="1.51" stroke="#3b9cc7" fill="#3b9cc7" d="M259,444L242,503L288,501Z"></path><path stroke-width="1.51" stroke="#98c8d1" fill="#98c8d1" d="M243,48L257,73L297,42Z"></path><path stroke-width="1.51" stroke="#89c3c5" fill="#89c3c5" d="M251,143L255,186L281,187Z"></path><path stroke-width="1.51" stroke="#3290c1" fill="#3290c1" d="M252,538L264,560L284,521Z"></path><path stroke-width="1.51" stroke="#2e8abe" fill="#2e8abe" d="M284,521L264,560L286,559Z"></path><path stroke-width="1.51" stroke="#95c8cc" fill="#95c8cc" d="M257,73L241,106L288,116Z"></path><path stroke-width="1.51" stroke="#9fc9d7" fill="#9fc9d7" d="M253,-14L274,-3L292,-34Z"></path><path stroke-width="1.51" stroke="#60b5c6" fill="#60b5c6" d="M262,310L249,331L293,326Z"></path><path stroke-width="1.51" stroke="#62b3c4" fill="#62b3c4" d="M278,298L262,310L293,326Z"></path><path stroke-width="1.51" stroke="#6fb8c3" fill="#6fb8c3" d="M244,265L278,298L287,259Z"></path><path stroke-width="1.51" stroke="#81bdc1" fill="#81bdc1" d="M281,187L255,186L291,216Z"></path><path stroke-width="1.51" stroke="#a2ccd9" fill="#a2ccd9" d="M259,-48L253,-14L292,-34Z"></path><path stroke-width="1.51" stroke="#80bfc1" fill="#80bfc1" d="M255,186L247,229L291,216Z"></path><path stroke-width="1.51" stroke="#2e88bd" fill="#2e88bd" d="M264,560L244,600L275,609Z"></path><path stroke-width="1.51" stroke="#4daacb" fill="#4daacb" d="M253,385L275,401L290,385Z"></path><path stroke-width="1.51" stroke="#46a9cd" fill="#46a9cd" d="M275,401L251,408L278,438Z"></path><path stroke-width="1.51" stroke="#3078ac" fill="#3078ac" d="M251,670L203,686L281,690Z"></path><path stroke-width="1.51" stroke="#77bdc3" fill="#77bdc3" d="M247,229L244,265L287,259Z"></path><path stroke-width="1.51" stroke="#3494c3" fill="#3494c3" d="M242,503L284,521L288,501Z"></path><path stroke-width="1.51" stroke="#93c7ca" fill="#93c7ca" d="M241,106L251,143L288,116Z"></path><path stroke-width="1.51" stroke="#afdbde" fill="#afdbde" d="M171,-47L221,-33L259,-48Z"></path><path stroke-width="1.51" stroke="#2c7bb1" fill="#2c7bb1" d="M253,634L251,670L278,635Z"></path><path stroke-width="1.51" stroke="#3695c4" fill="#3695c4" d="M242,503L252,538L284,521Z"></path><path stroke-width="1.51" stroke="#a2d0d9" fill="#a2d0d9" d="M253,-14L225,-1L274,-3Z"></path><path stroke-width="1.51" stroke="#a1d0d8" fill="#a1d0d8" d="M225,-1L243,48L274,-3Z"></path><path stroke-width="1.51" stroke="#2a7db5" fill="#2a7db5" d="M275,609L253,634L278,635Z"></path><path stroke-width="1.51" stroke="#45a7cd" fill="#45a7cd" d="M251,408L259,444L278,438Z"></path><path stroke-width="1.51" stroke="#6bbac5" fill="#6bbac5" d="M244,265L262,310L278,298Z"></path><path stroke-width="1.51" stroke="#2e84b9" fill="#2e84b9" d="M244,600L253,634L275,609Z"></path><path stroke-width="1.51" stroke="#4eadce" fill="#4eadce" d="M253,385L251,408L275,401Z"></path><path stroke-width="1.51" stroke="#44a6cc" fill="#44a6cc" d="M212,466L242,503L259,444Z"></path><path stroke-width="1.51" stroke="#5fbacd" fill="#5fbacd" d="M249,331L223,333L253,385Z"></path><path stroke-width="1.51" stroke="#85c7c5" fill="#85c7c5" d="M225,213L247,229L255,186Z"></path><path stroke-width="1.51" stroke="#a7d3dd" fill="#a7d3dd" d="M221,-33L253,-14L259,-48Z"></path><path stroke-width="1.51" stroke="#72c1c8" fill="#72c1c8" d="M244,265L212,277L262,310Z"></path><path stroke-width="1.51" stroke="#3996c4" fill="#3996c4" d="M252,538L207,555L264,560Z"></path><path stroke-width="1.51" stroke="#3792c2" fill="#3792c2" d="M207,555L244,600L264,560Z"></path><path stroke-width="1.51" stroke="#8fcac9" fill="#8fcac9" d="M251,143L226,141L255,186Z"></path><path stroke-width="1.51" stroke="#4bafd1" fill="#4bafd1" d="M251,408L226,406L259,444Z"></path><path stroke-width="1.51" stroke="#64bccb" fill="#64bccb" d="M223,333L249,331L262,310Z"></path><path stroke-width="1.51" stroke="#6dc1ca" fill="#6dc1ca" d="M212,277L223,333L262,310Z"></path><path stroke-width="1.51" stroke="#4aa7c9" fill="#4aa7c9" d="M212,466L211,487L242,503Z"></path><path stroke-width="1.51" stroke="#96cdcc" fill="#96cdcc" d="M241,106L226,141L251,143Z"></path><path stroke-width="1.51" stroke="#3c9cc7" fill="#3c9cc7" d="M242,503L219,524L252,538Z"></path><path stroke-width="1.51" stroke="#3381b4" fill="#3381b4" d="M214,645L251,670L253,634Z"></path><path stroke-width="1.51" stroke="#5fbacf" fill="#5fbacf" d="M223,333L208,388L253,385Z"></path><path stroke-width="1.51" stroke="#9bd1d2" fill="#9bd1d2" d="M211,82L241,106L257,73Z"></path><path stroke-width="1.51" stroke="#4cafd0" fill="#4cafd0" d="M226,406L212,466L259,444Z"></path><path stroke-width="1.51" stroke="#348abd" fill="#348abd" d="M244,600L219,604L253,634Z"></path><path stroke-width="1.51" stroke="#8fcdc8" fill="#8fcdc8" d="M226,141L209,199L255,186Z"></path><path stroke-width="1.51" stroke="#9dd1d4" fill="#9dd1d4" d="M243,48L211,82L257,73Z"></path><path stroke-width="1.51" stroke="#a4d6d7" fill="#a4d6d7" d="M225,-1L204,36L243,48Z"></path><path stroke-width="1.51" stroke="#3e92c0" fill="#3e92c0" d="M207,555L219,604L244,600Z"></path><path stroke-width="1.51" stroke="#51b3d1" fill="#51b3d1" d="M226,406L251,408L253,385Z"></path><path stroke-width="1.51" stroke="#8acbc6" fill="#8acbc6" d="M209,199L225,213L255,186Z"></path><path stroke-width="1.51" stroke="#75c6c7" fill="#75c6c7" d="M212,277L198,292L223,333Z"></path><path stroke-width="1.51" stroke="#419bc5" fill="#419bc5" d="M219,524L207,555L252,538Z"></path><path stroke-width="1.51" stroke="#3989b9" fill="#3989b9" d="M219,604L214,645L253,634Z"></path><path stroke-width="1.51" stroke="#58b7d1" fill="#58b7d1" d="M208,388L226,406L253,385Z"></path><path stroke-width="1.51" stroke="#a8d6dd" fill="#a8d6dd" d="M221,-33L225,-1L253,-14Z"></path><path stroke-width="1.51" stroke="#80c6c5" fill="#80c6c5" d="M225,213L244,265L247,229Z"></path><path stroke-width="1.51" stroke="#3b81af" fill="#3b81af" d="M214,645L203,686L251,670Z"></path><path stroke-width="1.51" stroke="#7fc7c5" fill="#7fc7c5" d="M225,213L212,277L244,265Z"></path><path stroke-width="1.51" stroke="#9bd2cc" fill="#9bd2cc" d="M202,108L226,141L241,106Z"></path><path stroke-width="1.51" stroke="#a3d5d3" fill="#a3d5d3" d="M204,36L211,82L243,48Z"></path><path stroke-width="1.51" stroke="#45a3c8" fill="#45a3c8" d="M211,487L219,524L242,503Z"></path><path stroke-width="1.51" stroke="#59b4cd" fill="#59b4cd" d="M178,440L212,466L226,406Z"></path><path stroke-width="1.51" stroke="#9fd4ce" fill="#9fd4ce" d="M211,82L202,108L241,106Z"></path><path stroke-width="1.51" stroke="#8ad1c0" fill="#8ad1c0" d="M165,222L161,264L212,277Z"></path><path stroke-width="1.51" stroke="#4996bd" fill="#4996bd" d="M207,555L180,601L219,604Z"></path><path stroke-width="1.51" stroke="#458db7" fill="#458db7" d="M183,634L214,645L219,604Z"></path><path stroke-width="1.51" stroke="#6cc1ca" fill="#6cc1ca" d="M172,349L208,388L223,333Z"></path><path stroke-width="1.51" stroke="#8acec1" fill="#8acec1" d="M165,222L212,277L225,213Z"></path><path stroke-width="1.51" stroke="#8fd0c1" fill="#8fd0c1" d="M209,199L165,222L225,213Z"></path><path stroke-width="1.51" stroke="#addada" fill="#addada" d="M221,-33L186,-6L225,-1Z"></path><path stroke-width="1.51" stroke="#acdbd6" fill="#acdbd6" d="M186,-6L204,36L225,-1Z"></path><path stroke-width="1.51" stroke="#5dbacf" fill="#5dbacf" d="M208,388L178,440L226,406Z"></path><path stroke-width="1.51" stroke="#98d3c6" fill="#98d3c6" d="M187,144L209,199L226,141Z"></path><path stroke-width="1.51" stroke="#9fd5c8" fill="#9fd5c8" d="M202,108L187,144L226,141Z"></path><path stroke-width="1.51" stroke="#a3d9c7" fill="#a3d9c7" d="M182,123L187,144L202,108Z"></path><path stroke-width="1.51" stroke="#65becd" fill="#65becd" d="M166,406L178,440L208,388Z"></path><path stroke-width="1.51" stroke="#73c7c8" fill="#73c7c8" d="M198,292L172,349L223,333Z"></path><path stroke-width="1.51" stroke="#4685ac" fill="#4685ac" d="M175,674L203,686L214,645Z"></path><path stroke-width="1.51" stroke="#4a92b9" fill="#4a92b9" d="M180,601L183,634L219,604Z"></path><path stroke-width="1.51" stroke="#50a6c4" fill="#50a6c4" d="M211,487L169,525L219,524Z"></path><path stroke-width="1.51" stroke="#b4dfd8" fill="#b4dfd8" d="M171,-47L186,-6L221,-33Z"></path><path stroke-width="1.51" stroke="#4fa1c2" fill="#4fa1c2" d="M169,525L207,555L219,524Z"></path><path stroke-width="1.51" stroke="#4f86a6" fill="#4f86a6" d="M175,674L144,684L203,686Z"></path><path stroke-width="1.51" stroke="#519cbd" fill="#519cbd" d="M171,559L180,601L207,555Z"></path><path stroke-width="1.51" stroke="#6ec3ca" fill="#6ec3ca" d="M172,349L164,381L208,388Z"></path><path stroke-width="1.51" stroke="#9ad6c2" fill="#9ad6c2" d="M187,144L161,195L209,199Z"></path><path stroke-width="1.51" stroke="#59acc3" fill="#59acc3" d="M164,483L169,525L211,487Z"></path><path stroke-width="1.51" stroke="#aadbd0" fill="#aadbd0" d="M204,36L167,38L211,82Z"></path><path stroke-width="1.51" stroke="#abddcd" fill="#abddcd" d="M167,38L164,85L211,82Z"></path><path stroke-width="1.51" stroke="#84cec2" fill="#84cec2" d="M161,264L177,287L212,277Z"></path><path stroke-width="1.51" stroke="#4a8baf" fill="#4a8baf" d="M183,634L175,674L214,645Z"></path><path stroke-width="1.51" stroke="#7ccbc4" fill="#7ccbc4" d="M177,287L172,349L198,292Z"></path><path stroke-width="1.51" stroke="#56adc7" fill="#56adc7" d="M164,483L211,487L212,466Z"></path><path stroke-width="1.51" stroke="#5db3c7" fill="#5db3c7" d="M178,440L164,483L212,466Z"></path><path stroke-width="1.51" stroke="#7ecac4" fill="#7ecac4" d="M177,287L198,292L212,277Z"></path><path stroke-width="1.51" stroke="#55a3bf" fill="#55a3bf" d="M169,525L171,559L207,555Z"></path><path stroke-width="1.51" stroke="#a6d9cb" fill="#a6d9cb" d="M164,85L202,108L211,82Z"></path><path stroke-width="1.51" stroke="#afded3" fill="#afded3" d="M186,-6L167,38L204,36Z"></path><path stroke-width="1.51" stroke="#96d5bf" fill="#96d5bf" d="M161,195L165,222L209,199Z"></path><path stroke-width="1.51" stroke="#6bc1ca" fill="#6bc1ca" d="M164,381L166,406L208,388Z"></path><path stroke-width="1.51" stroke="#a6dbc9" fill="#a6dbc9" d="M164,85L182,123L202,108Z"></path><path stroke-width="1.51" stroke="#94d5bc" fill="#94d5bc" d="M148,252L161,264L165,222Z"></path><path stroke-width="1.51" stroke="#7eccc3" fill="#7eccc3" d="M142,351L172,349L177,287Z"></path><path stroke-width="1.51" stroke="#88d0c0" fill="#88d0c0" d="M129,286L142,351L177,287Z"></path><path stroke-width="1.51" stroke="#66b7c5" fill="#66b7c5" d="M150,461L164,483L178,440Z"></path><path stroke-width="1.51" stroke="#5493b3" fill="#5493b3" d="M180,601L150,643L183,634Z"></path><path stroke-width="1.51" stroke="#538ead" fill="#538ead" d="M150,643L175,674L183,634Z"></path><path stroke-width="1.51" stroke="#b4e1d0" fill="#b4e1d0" d="M148,37L167,38L186,-6Z"></path><path stroke-width="1.51" stroke="#bbe4d0" fill="#bbe4d0" d="M125,-7L148,37L186,-6Z"></path><path stroke-width="1.51" stroke="#bce4d4" fill="#bce4d4" d="M171,-47L125,-7L186,-6Z"></path><path stroke-width="1.51" stroke="#a6dbc4" fill="#a6dbc4" d="M182,123L147,145L187,144Z"></path><path stroke-width="1.51" stroke="#a4dbc1" fill="#a4dbc1" d="M147,145L161,195L187,144Z"></path><path stroke-width="1.51" stroke="#addec6" fill="#addec6" d="M164,85L141,101L182,123Z"></path><path stroke-width="1.51" stroke="#5c9eb8" fill="#5c9eb8" d="M171,559L129,596L180,601Z"></path><path stroke-width="1.51" stroke="#b5e2ca" fill="#b5e2ca" d="M132,61L164,85L167,38Z"></path><path stroke-width="1.51" stroke="#5d99b4" fill="#5d99b4" d="M129,596L150,643L180,601Z"></path><path stroke-width="1.51" stroke="#addec4" fill="#addec4" d="M141,101L147,145L182,123Z"></path><path stroke-width="1.51" stroke="#b8e3cb" fill="#b8e3cb" d="M148,37L132,61L167,38Z"></path><path stroke-width="1.51" stroke="#78c7c7" fill="#78c7c7" d="M150,372L164,381L172,349Z"></path><path stroke-width="1.51" stroke="#c4e8d3" fill="#c4e8d3" d="M129,-50L125,-7L171,-47Z"></path><path stroke-width="1.51" stroke="#69bcc8" fill="#69bcc8" d="M166,406L150,461L178,440Z"></path><path stroke-width="1.51" stroke="#72c1c8" fill="#72c1c8" d="M132,402L150,461L166,406Z"></path><path stroke-width="1.51" stroke="#60a6bc" fill="#60a6bc" d="M169,525L134,552L171,559Z"></path><path stroke-width="1.51" stroke="#588ca8" fill="#588ca8" d="M150,643L144,684L175,674Z"></path><path stroke-width="1.51" stroke="#8ed2bf" fill="#8ed2bf" d="M161,264L129,286L177,287Z"></path><path stroke-width="1.51" stroke="#67a9bb" fill="#67a9bb" d="M131,540L134,552L169,525Z"></path><path stroke-width="1.51" stroke="#65a3b9" fill="#65a3b9" d="M134,552L129,596L171,559Z"></path><path stroke-width="1.51" stroke="#a8dcbd" fill="#a8dcbd" d="M147,145L125,189L161,195Z"></path><path stroke-width="1.51" stroke="#65b1c1" fill="#65b1c1" d="M164,483L138,476L169,525Z"></path><path stroke-width="1.51" stroke="#68aebe" fill="#68aebe" d="M138,476L131,540L169,525Z"></path><path stroke-width="1.51" stroke="#7ccac5" fill="#7ccac5" d="M142,351L150,372L172,349Z"></path><path stroke-width="1.51" stroke="#8ed2be" fill="#8ed2be" d="M129,286L106,332L142,351Z"></path><path stroke-width="1.51" stroke="#9ed8bc" fill="#9ed8bc" d="M161,195L136,214L165,222Z"></path><path stroke-width="1.51" stroke="#75c5c8" fill="#75c5c8" d="M164,381L132,402L166,406Z"></path><path stroke-width="1.51" stroke="#9bd7ba" fill="#9bd7ba" d="M136,214L148,252L165,222Z"></path><path stroke-width="1.51" stroke="#6bb6c2" fill="#6bb6c2" d="M150,461L138,476L164,483Z"></path><path stroke-width="1.51" stroke="#7ac7c6" fill="#7ac7c6" d="M150,372L132,402L164,381Z"></path><path stroke-width="1.51" stroke="#73b4bd" fill="#73b4bd" d="M107,487L131,540L138,476Z"></path><path stroke-width="1.51" stroke="#b5e2c6" fill="#b5e2c6" d="M132,61L141,101L164,85Z"></path><path stroke-width="1.51" stroke="#6799af" fill="#6799af" d="M129,596L111,631L150,643Z"></path><path stroke-width="1.51" stroke="#94d4bd" fill="#94d4bd" d="M148,252L129,286L161,264Z"></path><path stroke-width="1.51" stroke="#a4dbbb" fill="#a4dbbb" d="M125,189L136,214L161,195Z"></path><path stroke-width="1.51" stroke="#83c5c4" fill="#83c5c4" d="M89,426L101,462L132,402Z"></path><path stroke-width="1.51" stroke="#bbe4c5" fill="#bbe4c5" d="M132,61L111,78L141,101Z"></path><path stroke-width="1.51" stroke="#6890a4" fill="#6890a4" d="M111,631L104,689L144,684Z"></path><path stroke-width="1.51" stroke="#b2e1bb" fill="#b2e1bb" d="M88,153L125,189L147,145Z"></path><path stroke-width="1.51" stroke="#b5e2c0" fill="#b5e2c0" d="M141,101L106,117L147,145Z"></path><path stroke-width="1.51" stroke="#9fd9b9" fill="#9fd9b9" d="M136,214L107,258L148,252Z"></path><path stroke-width="1.51" stroke="#9ad7ba" fill="#9ad7ba" d="M107,258L129,286L148,252Z"></path><path stroke-width="1.51" stroke="#c4e8cc" fill="#c4e8cc" d="M125,-7L98,11L148,37Z"></path><path stroke-width="1.51" stroke="#c5e9c9" fill="#c5e9c9" d="M98,11L99,36L148,37Z"></path><path stroke-width="1.51" stroke="#6392a9" fill="#6392a9" d="M111,631L144,684L150,643Z"></path><path stroke-width="1.51" stroke="#75bac1" fill="#75bac1" d="M101,462L138,476L150,461Z"></path><path stroke-width="1.51" stroke="#7ac0c4" fill="#7ac0c4" d="M132,402L101,462L150,461Z"></path><path stroke-width="1.51" stroke="#84ccc3" fill="#84ccc3" d="M142,351L101,377L150,372Z"></path><path stroke-width="1.51" stroke="#83cac4" fill="#83cac4" d="M101,377L132,402L150,372Z"></path><path stroke-width="1.51" stroke="#97d6bc" fill="#97d6bc" d="M96,311L106,332L129,286Z"></path><path stroke-width="1.51" stroke="#a7dcb6" fill="#a7dcb6" d="M99,224L107,258L136,214Z"></path><path stroke-width="1.51" stroke="#bfe6c8" fill="#bfe6c8" d="M99,36L132,61L148,37Z"></path><path stroke-width="1.51" stroke="#caeacf" fill="#caeacf" d="M104,-27L125,-7L129,-50Z"></path><path stroke-width="1.51" stroke="#b9e4bc" fill="#b9e4bc" d="M106,117L88,153L147,145Z"></path><path stroke-width="1.51" stroke="#6fa7b6" fill="#6fa7b6" d="M97,552L129,596L134,552Z"></path><path stroke-width="1.51" stroke="#8ccfc0" fill="#8ccfc0" d="M106,332L101,377L142,351Z"></path><path stroke-width="1.51" stroke="#77b1ba" fill="#77b1ba" d="M107,487L88,536L131,540Z"></path><path stroke-width="1.51" stroke="#bce5c1" fill="#bce5c1" d="M111,78L106,117L141,101Z"></path><path stroke-width="1.51" stroke="#7abbbe" fill="#7abbbe" d="M101,462L107,487L138,476Z"></path><path stroke-width="1.51" stroke="#b5e2ba" fill="#b5e2ba" d="M88,153L95,188L125,189Z"></path><path stroke-width="1.51" stroke="#a9ddb8" fill="#a9ddb8" d="M125,189L99,224L136,214Z"></path><path stroke-width="1.51" stroke="#73a5b5" fill="#73a5b5" d="M97,552L89,600L129,596Z"></path><path stroke-width="1.51" stroke="#70aab8" fill="#70aab8" d="M131,540L97,552L134,552Z"></path><path stroke-width="1.51" stroke="#6f9fb1" fill="#6f9fb1" d="M89,600L111,631L129,596Z"></path><path stroke-width="1.51" stroke="#d3eed2" fill="#d3eed2" d="M56,-44L104,-27L129,-50Z"></path><path stroke-width="1.51" stroke="#87cac4" fill="#87cac4" d="M101,377L89,426L132,402Z"></path><path stroke-width="1.51" stroke="#c2e7c5" fill="#c2e7c5" d="M99,36L111,78L132,61Z"></path><path stroke-width="1.51" stroke="#afe0b8" fill="#afe0b8" d="M95,188L99,224L125,189Z"></path><path stroke-width="1.51" stroke="#77adb9" fill="#77adb9" d="M88,536L97,552L131,540Z"></path><path stroke-width="1.51" stroke="#9cd8bb" fill="#9cd8bb" d="M107,258L96,311L129,286Z"></path><path stroke-width="1.51" stroke="#cbebcd" fill="#cbebcd" d="M104,-27L98,11L125,-7Z"></path><path stroke-width="1.51" stroke="#8dccc8" fill="#8dccc8" d="M72,423L89,426L101,377Z"></path><path stroke-width="1.51" stroke="#7795a8" fill="#7795a8" d="M50,645L56,682L104,689Z"></path><path stroke-width="1.51" stroke="#94d1c3" fill="#94d1c3" d="M64,372L101,377L106,332Z"></path><path stroke-width="1.51" stroke="#81b8bf" fill="#81b8bf" d="M53,484L88,536L107,487Z"></path><path stroke-width="1.51" stroke="#a3dabd" fill="#a3dabd" d="M70,268L96,311L107,258Z"></path><path stroke-width="1.51" stroke="#7397a9" fill="#7397a9" d="M50,645L104,689L111,631Z"></path><path stroke-width="1.51" stroke="#799eb0" fill="#799eb0" d="M65,617L50,645L111,631Z"></path><path stroke-width="1.51" stroke="#76a0b2" fill="#76a0b2" d="M89,600L65,617L111,631Z"></path><path stroke-width="1.51" stroke="#c3e8c3" fill="#c3e8c3" d="M74,87L106,117L111,78Z"></path><path stroke-width="1.51" stroke="#c7e9c7" fill="#c7e9c7" d="M99,36L74,87L111,78Z"></path><path stroke-width="1.51" stroke="#92cfc7" fill="#92cfc7" d="M64,372L72,423L101,377Z"></path><path stroke-width="1.51" stroke="#d0edcf" fill="#d0edcf" d="M69,10L98,11L104,-27Z"></path><path stroke-width="1.51" stroke="#9bd6c4" fill="#9bd6c4" d="M51,324L64,372L106,332Z"></path><path stroke-width="1.51" stroke="#83bdc1" fill="#83bdc1" d="M101,462L53,484L107,487Z"></path><path stroke-width="1.51" stroke="#a9deba" fill="#a9deba" d="M99,224L70,268L107,258Z"></path><path stroke-width="1.51" stroke="#a5dbc0" fill="#a5dbc0" d="M70,268L58,300L96,311Z"></path><path stroke-width="1.51" stroke="#7caab9" fill="#7caab9" d="M51,567L89,600L97,552Z"></path><path stroke-width="1.51" stroke="#9bd7c1" fill="#9bd7c1" d="M96,311L51,324L106,332Z"></path><path stroke-width="1.51" stroke="#c5e8c2" fill="#c5e8c2" d="M52,100L88,153L106,117Z"></path><path stroke-width="1.51" stroke="#c8eac5" fill="#c8eac5" d="M74,87L52,100L106,117Z"></path><path stroke-width="1.51" stroke="#ceeccb" fill="#ceeccb" d="M55,25L74,87L99,36Z"></path><path stroke-width="1.51" stroke="#89c5c6" fill="#89c5c6" d="M89,426L60,438L101,462Z"></path><path stroke-width="1.51" stroke="#d6efd3" fill="#d6efd3" d="M56,-44L69,10L104,-27Z"></path><path stroke-width="1.51" stroke="#bce5be" fill="#bce5be" d="M88,153L65,161L95,188Z"></path><path stroke-width="1.51" stroke="#bbe5bd" fill="#bbe5bd" d="M48,182L48,233L95,188Z"></path><path stroke-width="1.51" stroke="#b4e2ba" fill="#b4e2ba" d="M95,188L48,233L99,224Z"></path><path stroke-width="1.51" stroke="#b1e0bc" fill="#b1e0bc" d="M48,233L70,268L99,224Z"></path><path stroke-width="1.51" stroke="#ceeccd" fill="#ceeccd" d="M98,11L69,10L99,36Z"></path><path stroke-width="1.51" stroke="#8ac2c5" fill="#8ac2c5" d="M60,438L53,484L101,462Z"></path><path stroke-width="1.51" stroke="#e5f5de" fill="#e5f5de" d="M-25,-49L30,-36L56,-44Z"></path><path stroke-width="1.51" stroke="#84b6c0" fill="#84b6c0" d="M53,484L61,541L88,536Z"></path><path stroke-width="1.51" stroke="#d1edce" fill="#d1edce" d="M69,10L55,25L99,36Z"></path><path stroke-width="1.51" stroke="#c6e8c2" fill="#c6e8c2" d="M52,100L65,161L88,153Z"></path><path stroke-width="1.51" stroke="#81afbc" fill="#81afbc" d="M61,541L51,567L97,552Z"></path><path stroke-width="1.51" stroke="#7eb0bc" fill="#7eb0bc" d="M88,536L61,541L97,552Z"></path><path stroke-width="1.51" stroke="#a3dac2" fill="#a3dac2" d="M58,300L51,324L96,311Z"></path><path stroke-width="1.51" stroke="#8dc9c8" fill="#8dc9c8" d="M72,423L60,438L89,426Z"></path><path stroke-width="1.51" stroke="#bfe6be" fill="#bfe6be" d="M65,161L48,182L95,188Z"></path><path stroke-width="1.51" stroke="#7ea6b9" fill="#7ea6b9" d="M51,567L65,617L89,600Z"></path><path stroke-width="1.51" stroke="#d9f1d3" fill="#d9f1d3" d="M26,29L10,70L55,25Z"></path><path stroke-width="1.51" stroke="#8bbbc3" fill="#8bbbc3" d="M53,484L36,487L61,541Z"></path><path stroke-width="1.51" stroke="#8bb9c4" fill="#8bb9c4" d="M36,487L19,533L61,541Z"></path><path stroke-width="1.51" stroke="#a2d8c8" fill="#a2d8c8" d="M51,324L28,339L64,372Z"></path><path stroke-width="1.51" stroke="#cdebc6" fill="#cdebc6" d="M52,100L15,151L65,161Z"></path><path stroke-width="1.51" stroke="#dcf2d5" fill="#dcf2d5" d="M56,-44L33,-5L69,10Z"></path><path stroke-width="1.51" stroke="#98d1ca" fill="#98d1ca" d="M64,372L35,389L72,423Z"></path><path stroke-width="1.51" stroke="#d5efce" fill="#d5efce" d="M55,25L10,70L74,87Z"></path><path stroke-width="1.51" stroke="#d2eecb" fill="#d2eecb" d="M10,70L52,100L74,87Z"></path><path stroke-width="1.51" stroke="#99d0cf" fill="#99d0cf" d="M35,389L22,400L60,438Z"></path><path stroke-width="1.51" stroke="#91c5c8" fill="#91c5c8" d="M26,466L53,484L60,438Z"></path><path stroke-width="1.51" stroke="#84a9bd" fill="#84a9bd" d="M51,567L9,600L65,617Z"></path><path stroke-width="1.51" stroke="#b5e2c0" fill="#b5e2c0" d="M48,233L25,254L70,268Z"></path><path stroke-width="1.51" stroke="#95cecc" fill="#95cecc" d="M35,389L60,438L72,423Z"></path><path stroke-width="1.51" stroke="#88adc1" fill="#88adc1" d="M19,573L9,600L51,567Z"></path><path stroke-width="1.51" stroke="#e0f3d9" fill="#e0f3d9" d="M30,-36L33,-5L56,-44Z"></path><path stroke-width="1.51" stroke="#aedfc3" fill="#aedfc3" d="M20,292L58,300L70,268Z"></path><path stroke-width="1.51" stroke="#b3e1c3" fill="#b3e1c3" d="M25,254L20,292L70,268Z"></path><path stroke-width="1.51" stroke="#d9f1d3" fill="#d9f1d3" d="M33,-5L55,25L69,10Z"></path><path stroke-width="1.51" stroke="#c1e7c2" fill="#c1e7c2" d="M15,200L14,213L48,233Z"></path><path stroke-width="1.51" stroke="#c1e7c1" fill="#c1e7c1" d="M15,200L48,233L48,182Z"></path><path stroke-width="1.51" stroke="#d1edcb" fill="#d1edcb" d="M12,107L15,151L52,100Z"></path><path stroke-width="1.51" stroke="#8097ae" fill="#8097ae" d="M30,666L-19,680L56,682Z"></path><path stroke-width="1.51" stroke="#7d99ad" fill="#7d99ad" d="M50,645L30,666L56,682Z"></path><path stroke-width="1.51" stroke="#a0d6ca" fill="#a0d6ca" d="M28,339L35,389L64,372Z"></path><path stroke-width="1.51" stroke="#7f9fb3" fill="#7f9fb3" d="M33,646L50,645L65,617Z"></path><path stroke-width="1.51" stroke="#83a3b9" fill="#83a3b9" d="M9,600L33,646L65,617Z"></path><path stroke-width="1.51" stroke="#c7e9c3" fill="#c7e9c3" d="M15,151L48,182L65,161Z"></path><path stroke-width="1.51" stroke="#88b2c1" fill="#88b2c1" d="M19,533L51,567L61,541Z"></path><path stroke-width="1.51" stroke="#96c8cd" fill="#96c8cd" d="M-2,446L26,466L60,438Z"></path><path stroke-width="1.51" stroke="#99cdd0" fill="#99cdd0" d="M22,400L-2,446L60,438Z"></path><path stroke-width="1.51" stroke="#90c1c8" fill="#90c1c8" d="M26,466L36,487L53,484Z"></path><path stroke-width="1.51" stroke="#dbf1d4" fill="#dbf1d4" d="M33,-5L26,29L55,25Z"></path><path stroke-width="1.51" stroke="#abddc5" fill="#abddc5" d="M20,292L51,324L58,300Z"></path><path stroke-width="1.51" stroke="#809cb1" fill="#809cb1" d="M33,646L30,666L50,645Z"></path><path stroke-width="1.51" stroke="#89b1c2" fill="#89b1c2" d="M19,533L19,573L51,567Z"></path><path stroke-width="1.51" stroke="#d4eece" fill="#d4eece" d="M10,70L12,107L52,100Z"></path><path stroke-width="1.51" stroke="#a9ddc8" fill="#a9ddc8" d="M20,292L28,339L51,324Z"></path><path stroke-width="1.51" stroke="#bde5c1" fill="#bde5c1" d="M14,213L25,254L48,233Z"></path><path stroke-width="1.51" stroke="#c8e9c5" fill="#c8e9c5" d="M15,151L15,200L48,182Z"></path><path stroke-width="1.51" stroke="#9ed0d4" fill="#9ed0d4" d="M-7,414L-2,446L22,400Z"></path><path stroke-width="1.51" stroke="#acdecb" fill="#acdecb" d="M20,292L-5,326L28,339Z"></path><path stroke-width="1.51" stroke="#87a4bc" fill="#87a4bc" d="M9,600L-28,636L33,646Z"></path><path stroke-width="1.51" stroke="#e0f3da" fill="#e0f3da" d="M-18,9L26,29L33,-5Z"></path><path stroke-width="1.51" stroke="#a3d7cf" fill="#a3d7cf" d="M28,339L-6,381L35,389Z"></path><path stroke-width="1.51" stroke="#a0d4d1" fill="#a0d4d1" d="M-6,381L22,400L35,389Z"></path><path stroke-width="1.51" stroke="#93c2cc" fill="#93c2cc" d="M26,466L-19,491L36,487Z"></path><path stroke-width="1.51" stroke="#91beca" fill="#91beca" d="M-19,491L19,533L36,487Z"></path><path stroke-width="1.51" stroke="#93bdcc" fill="#93bdcc" d="M-19,491L-22,515L19,533Z"></path><path stroke-width="1.51" stroke="#e2f4db" fill="#e2f4db" d="M30,-36L-18,9L33,-5Z"></path><path stroke-width="1.51" stroke="#c1e7c6" fill="#c1e7c6" d="M-11,231L-1,254L14,213Z"></path><path stroke-width="1.51" stroke="#b8e3c7" fill="#b8e3c7" d="M-1,254L20,292L25,254Z"></path><path stroke-width="1.51" stroke="#bee5c5" fill="#bee5c5" d="M14,213L-1,254L25,254Z"></path><path stroke-width="1.51" stroke="#dcf2d6" fill="#dcf2d6" d="M-11,43L10,70L26,29Z"></path><path stroke-width="1.51" stroke="#849eb6" fill="#849eb6" d="M-28,636L30,666L33,646Z"></path><path stroke-width="1.51" stroke="#8ba8c2" fill="#8ba8c2" d="M-20,608L-28,636L9,600Z"></path><path stroke-width="1.51" stroke="#caeac9" fill="#caeac9" d="M-15,196L15,200L15,151Z"></path><path stroke-width="1.51" stroke="#a9dad0" fill="#a9dad0" d="M-5,326L-6,381L28,339Z"></path><path stroke-width="1.51" stroke="#859db7" fill="#859db7" d="M-28,636L-19,680L30,666Z"></path><path stroke-width="1.51" stroke="#e7f6e1" fill="#e7f6e1" d="M-25,-49L-18,9L30,-36Z"></path><path stroke-width="1.51" stroke="#8cb3c6" fill="#8cb3c6" d="M-13,567L19,573L19,533Z"></path><path stroke-width="1.51" stroke="#b1e1cc" fill="#b1e1cc" d="M-9,295L-5,326L20,292Z"></path><path stroke-width="1.51" stroke="#b7e2ca" fill="#b7e2ca" d="M-1,254L-9,295L20,292Z"></path><path stroke-width="1.51" stroke="#97c6d0" fill="#97c6d0" d="M-2,446L-19,491L26,466Z"></path><path stroke-width="1.51" stroke="#e0f3da" fill="#e0f3da" d="M-18,9L-11,43L26,29Z"></path><path stroke-width="1.51" stroke="#d4eecd" fill="#d4eecd" d="M12,107L-22,145L15,151Z"></path><path stroke-width="1.51" stroke="#a1d4d4" fill="#a1d4d4" d="M-6,381L-7,414L22,400Z"></path><path stroke-width="1.51" stroke="#d9f0d3" fill="#d9f0d3" d="M10,70L-21,98L12,107Z"></path><path stroke-width="1.51" stroke="#d0edcc" fill="#d0edcc" d="M-22,145L-15,196L15,151Z"></path><path stroke-width="1.51" stroke="#8baec4" fill="#8baec4" d="M-13,567L9,600L19,573Z"></path><path stroke-width="1.51" stroke="#90b8ca" fill="#90b8ca" d="M-22,515L-13,567L19,533Z"></path><path stroke-width="1.51" stroke="#dcf1d6" fill="#dcf1d6" d="M-17,68L-21,98L10,70Z"></path><path stroke-width="1.51" stroke="#d8f0d1" fill="#d8f0d1" d="M-21,98L-22,145L12,107Z"></path><path stroke-width="1.51" stroke="#c6e9c7" fill="#c6e9c7" d="M-15,196L14,213L15,200Z"></path><path stroke-width="1.51" stroke="#ddf2d7" fill="#ddf2d7" d="M-11,43L-17,68L10,70Z"></path><path stroke-width="1.51" stroke="#c6e9c8" fill="#c6e9c8" d="M-15,196L-11,231L14,213Z"></path><path stroke-width="1.51" stroke="#8cadc5" fill="#8cadc5" d="M-13,567L-20,608L9,600Z"></path><path stroke-width="1.51" stroke="#addcd4" fill="#addcd4" d="M-51,340L-6,381L-5,326Z"></path><path stroke-width="1.51" stroke="#eef9e7" fill="#eef9e7" d="M-49,-43L-47,5L-25,-49Z"></path><path stroke-width="1.51" stroke="#eaf7e4" fill="#eaf7e4" d="M-25,-49L-47,5L-18,9Z"></path><path stroke-width="1.51" stroke="#addad8" fill="#addad8" d="M-51,340L-42,380L-6,381Z"></path><path stroke-width="1.51" stroke="#a6d6d7" fill="#a6d6d7" d="M-42,380L-7,414L-6,381Z"></path><path stroke-width="1.51" stroke="#b4e2d0" fill="#b4e2d0" d="M-9,295L-45,309L-5,326Z"></path><path stroke-width="1.51" stroke="#9cc9d5" fill="#9cc9d5" d="M-57,456L-19,491L-2,446Z"></path><path stroke-width="1.51" stroke="#a0d0d8" fill="#a0d0d8" d="M-7,414L-51,427L-2,446Z"></path><path stroke-width="1.51" stroke="#bee5ce" fill="#bee5ce" d="M-62,259L-9,295L-1,254Z"></path><path stroke-width="1.51" stroke="#c2e7cc" fill="#c2e7cc" d="M-11,231L-62,259L-1,254Z"></path><path stroke-width="1.51" stroke="#a2ced9" fill="#a2ced9" d="M-51,427L-57,456L-2,446Z"></path><path stroke-width="1.51" stroke="#dbf1d5" fill="#dbf1d5" d="M-52,116L-22,145L-21,98Z"></path><path stroke-width="1.51" stroke="#d1edd0" fill="#d1edd0" d="M-22,145L-58,192L-15,196Z"></path><path stroke-width="1.51" stroke="#94b7cd" fill="#94b7cd" d="M-22,515L-57,562L-13,567Z"></path><path stroke-width="1.51" stroke="#bde5d2" fill="#bde5d2" d="M-62,259L-45,309L-9,295Z"></path><path stroke-width="1.51" stroke="#b4e1d4" fill="#b4e1d4" d="M-45,309L-51,340L-5,326Z"></path><path stroke-width="1.51" stroke="#c9ebcc" fill="#c9ebcc" d="M-15,196L-54,217L-11,231Z"></path><path stroke-width="1.51" stroke="#a6d6db" fill="#a6d6db" d="M-42,380L-51,427L-7,414Z"></path><path stroke-width="1.51" stroke="#98bcd1" fill="#98bcd1" d="M-54,517L-57,562L-22,515Z"></path><path stroke-width="1.51" stroke="#91b1ca" fill="#91b1ca" d="M-57,562L-20,608L-13,567Z"></path><path stroke-width="1.51" stroke="#c8eace" fill="#c8eace" d="M-54,217L-62,259L-11,231Z"></path><path stroke-width="1.51" stroke="#e5f5df" fill="#e5f5df" d="M-18,9L-47,5L-11,43Z"></path><path stroke-width="1.51" stroke="#d7f0d3" fill="#d7f0d3" d="M-50,140L-58,192L-22,145Z"></path><path stroke-width="1.51" stroke="#92afcb" fill="#92afcb" d="M-57,562L-51,612L-20,608Z"></path><path stroke-width="1.51" stroke="#e7f6e1" fill="#e7f6e1" d="M-47,5L-64,45L-11,43Z"></path><path stroke-width="1.51" stroke="#e3f4dc" fill="#e3f4dc" d="M-64,45L-17,68L-11,43Z"></path><path stroke-width="1.51" stroke="#dcf2d5" fill="#dcf2d5" d="M-52,116L-50,140L-22,145Z"></path><path stroke-width="1.51" stroke="#8b9ebb" fill="#8b9ebb" d="M-28,636L-66,672L-19,680Z"></path><path stroke-width="1.51" stroke="#9ec7d6" fill="#9ec7d6" d="M-57,456L-60,493L-19,491Z"></path><path stroke-width="1.51" stroke="#e0f3da" fill="#e0f3da" d="M-65,87L-21,98L-17,68Z"></path><path stroke-width="1.51" stroke="#cfedcf" fill="#cfedcf" d="M-58,192L-54,217L-15,196Z"></path><path stroke-width="1.51" stroke="#8ea3c0" fill="#8ea3c0" d="M-58,637L-66,672L-28,636Z"></path><path stroke-width="1.51" stroke="#8ea8c5" fill="#8ea8c5" d="M-51,612L-28,636L-20,608Z"></path><path stroke-width="1.51" stroke="#98c0d1" fill="#98c0d1" d="M-54,517L-22,515L-19,491Z"></path><path stroke-width="1.51" stroke="#9bc3d4" fill="#9bc3d4" d="M-60,493L-54,517L-19,491Z"></path><path stroke-width="1.51" stroke="#e5f5de" fill="#e5f5de" d="M-64,45L-65,87L-17,68Z"></path><path stroke-width="1.51" stroke="#e0f3d9" fill="#e0f3d9" d="M-65,87L-52,116L-21,98Z"></path><path stroke-width="1.51" stroke="#90a7c5" fill="#90a7c5" d="M-51,612L-58,637L-28,636Z"></path><path stroke-width="1.51" stroke="#addadb" fill="#addadb" d="M-51,340L-51,427L-42,380Z"></path><path stroke-width="1.51" stroke="#bce4d5" fill="#bce4d5" d="M-62,259L-51,340L-45,309Z"></path><path stroke-width="1.51" stroke="#ecf8e6" fill="#ecf8e6" d="M-49,-43L-64,45L-47,5Z"></path><path stroke-width="1.51" stroke="#a9d7de" fill="#a9d7de" d="M-57,456L-51,427L-51,340Z"></path><path stroke-width="1.51" stroke="#e1f3da" fill="#e1f3da" d="M-52,116L-65,87L-50,140Z"></path><path stroke-width="1.51" stroke="#def2d7" fill="#def2d7" d="M-65,87L-58,192L-50,140Z"></path><path stroke-width="1.51" stroke="#93aecc" fill="#93aecc" d="M-57,562L-58,637L-51,612Z"></path><path stroke-width="1.51" stroke="#b4dfda" fill="#b4dfda" d="M-62,259L-57,456L-51,340Z"></path><path stroke-width="1.51" stroke="#9bbed3" fill="#9bbed3" d="M-60,493L-57,562L-54,517Z"></path><path stroke-width="1.51" stroke="#ceecd0" fill="#ceecd0" d="M-58,192L-62,259L-54,217Z"></path><path stroke-width="1.51" stroke="#92a9c8" fill="#92a9c8" d="M-66,672L-58,637L-57,562Z"></path><path stroke-width="1.51" stroke="#97b4d0" fill="#97b4d0" d="M-60,493L-66,672L-57,562Z"></path><path stroke-width="1.51" stroke="#acd8df" fill="#acd8df" d="M-62,259L-60,493L-57,456Z"></path><path stroke-width="1.51" stroke="#d7f0d5" fill="#d7f0d5" d="M-65,87L-62,259L-58,192Z"></path><path stroke-width="1.51" stroke="#a2c9da" fill="#a2c9da" d="M-62,259L-66,672L-60,493Z"></path></svg>
