<?xml version="1.0" encoding="UTF-8" standalone="no"?>
<svg width="24px" height="24px" viewBox="0 0 24 24" version="1.1" xmlns="http://www.w3.org/2000/svg" xmlns:xlink="http://www.w3.org/1999/xlink" xmlns:sketch="http://www.bohemiancoding.com/sketch/ns">
    <!-- Generator: Sketch 3.3.3 (12072) - http://www.bohemiancoding.com/sketch -->
    <title>View</title>
    <desc>Created with Sketch.</desc>
    <defs>
        <filter x="-50%" y="-50%" width="200%" height="200%" filterUnits="objectBoundingBox" id="filter-1">
            <feOffset dx="0" dy="0" in="SourceAlpha" result="shadowOffsetOuter1"></feOffset>
            <feGaussianBlur stdDeviation="2" in="shadowOffsetOuter1" result="shadowBlurOuter1"></feGaussianBlur>
            <feColorMatrix values="0 0 0 0 0   0 0 0 0 0   0 0 0 0 0  0 0 0 0.14 0" in="shadowBlurOuter1" type="matrix" result="shadowMatrixOuter1"></feColorMatrix>
            <feMerge>
                <feMergeNode in="shadowMatrixOuter1"></feMergeNode>
                <feMergeNode in="SourceGraphic"></feMergeNode>
            </feMerge>
        </filter>
    </defs>
    <g id="Components" stroke="none" stroke-width="1" fill="none" fill-rule="evenodd" sketch:type="MSPage">
        <g id="Toolbar" sketch:type="MSArtboardGroup" transform="translate(-100.000000, -14.000000)">
            <g sketch:type="MSLayerGroup">
                <rect id="Box" stroke="#CDCDCD" fill="#F0F0F0" filter="url(#filter-1)" sketch:type="MSShapeGroup" x="0" y="0" width="360" height="50"></rect>
                <g id="Buttons" transform="translate(26.000000, 10.000000)" fill="#63B0CD" sketch:type="MSShapeGroup">
                    <path d="M77,10 C78.6568542,10 80,8.65685425 80,7 C80,5.34314575 78.6568542,4 77,4 C75.3431458,4 74,5.34314575 74,7 C74,8.65685425 75.3431458,10 77,10 Z M77,19 C78.6568542,19 80,17.6568542 80,16 C80,14.3431458 78.6568542,13 77,13 C75.3431458,13 74,14.3431458 74,16 C74,17.6568542 75.3431458,19 77,19 Z M86,19 C87.6568542,19 89,17.6568542 89,16 C89,14.3431458 87.6568542,13 86,13 C84.3431458,13 83,14.3431458 83,16 C83,17.6568542 84.3431458,19 86,19 Z M86,28 C87.6568542,28 89,26.6568542 89,25 C89,23.3431458 87.6568542,22 86,22 C84.3431458,22 83,23.3431458 83,25 C83,26.6568542 84.3431458,28 86,28 Z M77,28 C78.6568542,28 80,26.6568542 80,25 C80,23.3431458 78.6568542,22 77,22 C75.3431458,22 74,23.3431458 74,25 C74,26.6568542 75.3431458,28 77,28 Z M86,10 C87.6568542,10 89,8.65685425 89,7 C89,5.34314575 87.6568542,4 86,4 C84.3431458,4 83,5.34314575 83,7 C83,8.65685425 84.3431458,10 86,10 Z M95,19 C96.6568542,19 98,17.6568542 98,16 C98,14.3431458 96.6568542,13 95,13 C93.3431458,13 92,14.3431458 92,16 C92,17.6568542 93.3431458,19 95,19 Z M95,28 C96.6568542,28 98,26.6568542 98,25 C98,23.3431458 96.6568542,22 95,22 C93.3431458,22 92,23.3431458 92,25 C92,26.6568542 93.3431458,28 95,28 Z M95,10 C96.6568542,10 98,8.65685425 98,7 C98,5.34314575 96.6568542,4 95,4 C93.3431458,4 92,5.34314575 92,7 C92,8.65685425 93.3431458,10 95,10 Z" id="View"></path>
                </g>
            </g>
        </g>
    </g>
</svg>