<?xml version="1.0" encoding="UTF-8" standalone="no"?>
<svg width="30px" height="33px" viewBox="0 0 30 33" version="1.1" xmlns="http://www.w3.org/2000/svg" xmlns:xlink="http://www.w3.org/1999/xlink" xmlns:sketch="http://www.bohemiancoding.com/sketch/ns">
    <!-- Generator: Sketch 3.3.3 (12072) - http://www.bohemiancoding.com/sketch -->
    <title>Share</title>
    <desc>Created with Sketch.</desc>
    <defs>
        <filter x="-50%" y="-50%" width="200%" height="200%" filterUnits="objectBoundingBox" id="filter-1">
            <feOffset dx="0" dy="0" in="SourceAlpha" result="shadowOffsetOuter1"></feOffset>
            <feGaussianBlur stdDeviation="2" in="shadowOffsetOuter1" result="shadowBlurOuter1"></feGaussianBlur>
            <feColorMatrix values="0 0 0 0 0   0 0 0 0 0   0 0 0 0 0  0 0 0 0.14 0" in="shadowBlurOuter1" type="matrix" result="shadowMatrixOuter1"></feColorMatrix>
            <feMerge>
                <feMergeNode in="shadowMatrixOuter1"></feMergeNode>
                <feMergeNode in="SourceGraphic"></feMergeNode>
            </feMerge>
        </filter>
    </defs>
    <g id="Components" stroke="none" stroke-width="1" fill="none" fill-rule="evenodd" sketch:type="MSPage">
        <g id="Toolbar" sketch:type="MSArtboardGroup" transform="translate(-257.000000, -9.000000)">
            <g sketch:type="MSLayerGroup">
                <rect id="Box" stroke="#CDCDCD" fill="#F0F0F0" filter="url(#filter-1)" sketch:type="MSShapeGroup" x="0" y="0" width="360" height="50"></rect>
                <g id="Buttons" transform="translate(26.000000, 10.000000)" sketch:type="MSShapeGroup">
                    <g id="Share" transform="translate(234.000000, 1.000000)">
                        <rect id="Rectangle-19" stroke="#63B0CD" stroke-width="4" x="1" y="5" width="22" height="22" rx="3"></rect>
                        <g id="Arrow" transform="translate(3.970456, 0.882233)" stroke="#F0F0F0" stroke-width="2.5" fill="#63B0CD">
                            <path d="M20.2530929,5.25326679 C20.3438814,5.03976384 20.3987852,4.80672423 20.4099227,4.56134515 C20.432031,4.07426178 20.2779908,3.61997718 20.0040956,3.26013822 L20.0040956,3.26013822 C19.9211454,3.11025176 19.8084527,2.97343991 19.666954,2.85885655 L16.8349944,0.565580823 C16.2473288,0.0896986089 15.3888974,0.175692837 14.9102322,0.766795217 C14.5280707,1.23872535 14.51148,1.88774371 14.8254507,2.37170039 C8.0442336,2.34435705 5.13629361,3.46855439 3.00866682,7.10849311 C2.68821987,7.65671298 2.40532468,8.22634036 2.15810417,8.81484569 C0.984261485,11.6091635 0.691790704,14.485364 0.877899405,16.9746675 C0.895731743,17.2131846 0.914705989,17.391546 0.929731873,17.5029256 C1.07740823,18.5975788 2.08451526,19.3652551 3.17916839,19.2175787 C4.27382152,19.0699024 5.04149788,18.0627954 4.89382152,16.9681422 C4.88912564,16.933334 4.87851724,16.833613 4.86676693,16.6764463 C4.72372596,14.7631968 4.95552945,12.4836072 5.84592458,10.3640328 C6.02652213,9.93412255 6.23155977,9.52126628 6.46199346,9.1270409 C7.68123763,7.04116095 9.53426863,6.32342019 14.9076101,6.36745059 C14.6234537,6.83929221 14.6426924,7.45589796 15.0015672,7.91523679 C15.4698434,8.514603 16.3266432,8.61556582 16.9225246,8.15001227 L19.4222418,6.19701916 C19.5803173,6.10431474 19.7247752,5.9904338 19.8515556,5.85908383 C20.0438195,5.69160959 20.1787056,5.48100042 20.2530929,5.25326679 Z" id="Shape-Copy"></path>
                        </g>
                    </g>
                </g>
            </g>
        </g>
    </g>
</svg>