<svg xmlns="http://www.w3.org/2000/svg" width="30" height="30">
  <path fill="#fff" d="m 17.402,14.33 4.023,-4.022 C 21.117,9.142 20.695,8.076 20.185,7.132 L 14.515,12.8 8.83,7.115 C 8.32,8.057 7.895,9.121 7.586,10.285 l 4.044,4.046 c 0.006,0.01 0.015,0.02 0.02,0.02 0.33,0.33 0.34,0.86 0.033,1.2 l 0.003,0.01 -4.1,4.1 c 0.31,1.166 0.734,2.228 1.244,3.168 l 5.686,-5.685 5.668,5.668 c 0.51,-0.94 0.933,-2.004 1.24,-3.17 l -4.08,-4.076 0.005,-0.004 c -0.31,-0.343 -0.3,-0.87 0.03,-1.2 l 0.02,-0.017 z"/>
</svg>
