<?xml version="1.0" encoding="UTF-8" standalone="no"?>
<svg width="36px" height="32px" viewBox="0 0 36 32" version="1.1" xmlns="http://www.w3.org/2000/svg" xmlns:xlink="http://www.w3.org/1999/xlink" xmlns:sketch="http://www.bohemiancoding.com/sketch/ns">
    <!-- Generator: Sketch 3.3.3 (12072) - http://www.bohemiancoding.com/sketch -->
    <title>Directory</title>
    <desc>Created with Sketch.</desc>
    <defs></defs>
    <g id="Components" stroke="none" stroke-width="1" fill="none" fill-rule="evenodd" sketch:type="MSPage">
        <g id="Directory" sketch:type="MSArtboardGroup" transform="translate(-14.000000, -14.000000)" fill="#5EBEC2">
            <g sketch:type="MSLayerGroup" transform="translate(14.000000, 14.000000)" id="Rectangle-26">
                <path d="M31.5861302,4.8857172 L31.5861302,4.01206383 C31.5861302,1.79308927 29.7957552,0.00332028593 27.5872158,0.00332028593 L4.63272197,0.00332028593 C2.43172245,0.00332028593 0.633807607,1.7980959 0.633807607,4.01206383 L0.633807607,22.5765087 L2.99385717,8.43023526 C3.32044476,6.47265038 5.37422383,4.88571429 7.58945402,4.88571429 L31.5809386,4.88571429 C31.5826695,4.88571429 31.5844001,4.88571526 31.5861302,4.8857172 L31.5861302,4.8857172 Z M0.633839725,29.5203448 C0.634442717,29.6731046 0.643531019,29.8238105 0.660655651,29.9720175 L0.660655651,29.7103842 C0.660655651,29.6569617 0.661490198,29.6037345 0.663146965,29.5507151 C0.653298862,29.5406529 0.643529589,29.5305292 0.633839725,29.5203448 L0.633839725,29.5203448 Z M8.58945402,5.88571429 L32.5809386,5.88571429 C34.7924291,5.88571429 36.320372,7.47308677 35.9938572,9.43023526 L32.8913391,28.0269076 C32.5647516,29.9844925 30.5109725,31.5714286 28.2957423,31.5714286 L4.3042577,31.5714286 C2.09276724,31.5714286 0.564824355,29.9840561 0.891339142,28.0269076 L3.99385717,9.43023526 C4.32044476,7.47265038 6.37422383,5.88571429 8.58945402,5.88571429 Z" sketch:type="MSShapeGroup"></path>
            </g>
        </g>
    </g>
</svg>