<?xml version="1.0" encoding="UTF-8" standalone="no"?>
<svg width="6px" height="24px" viewBox="0 0 6 24" version="1.1" xmlns="http://www.w3.org/2000/svg" xmlns:xlink="http://www.w3.org/1999/xlink" xmlns:sketch="http://www.bohemiancoding.com/sketch/ns">
    <!-- Generator: Sketch 3.3.3 (12072) - http://www.bohemiancoding.com/sketch -->
    <title>More Copy</title>
    <desc>Created with Sketch.</desc>
    <defs></defs>
    <g id="Components" stroke="none" stroke-width="1" fill="none" fill-rule="evenodd" sketch:type="MSPage">
        <g id="Toolbar" sketch:type="MSArtboardGroup" transform="translate(-336.000000, -14.000000)" fill="#63B0CD">
            <g sketch:type="MSLayerGroup" id="Buttons">
                <g transform="translate(26.000000, 7.000000)" sketch:type="MSShapeGroup">
                    <path d="M313,13 C314.656854,13 316,11.6568542 316,10 C316,8.34314575 314.656854,7 313,7 C311.343146,7 310,8.34314575 310,10 C310,11.6568542 311.343146,13 313,13 Z M313,22 C314.656854,22 316,20.6568542 316,19 C316,17.3431458 314.656854,16 313,16 C311.343146,16 310,17.3431458 310,19 C310,20.6568542 311.343146,22 313,22 Z M313,31 C314.656854,31 316,29.6568542 316,28 C316,26.3431458 314.656854,25 313,25 C311.343146,25 310,26.3431458 310,28 C310,29.6568542 311.343146,31 313,31 Z" id="More"></path>
                </g>
            </g>
        </g>
    </g>
</svg>