<?xml version="1.0" encoding="UTF-8" standalone="no"?>
<svg width="24px" height="24px" viewBox="0 0 24 24" version="1.1" xmlns="http://www.w3.org/2000/svg" xmlns:xlink="http://www.w3.org/1999/xlink" xmlns:sketch="http://www.bohemiancoding.com/sketch/ns">
    <!-- Generator: Sketch 3.3.3 (12072) - http://www.bohemiancoding.com/sketch -->
    <title>Plus</title>
    <desc>Created with Sketch.</desc>
    <defs></defs>
    <g id="Components" stroke="none" stroke-width="1" fill="none" fill-rule="evenodd" sketch:type="MSPage">
        <g id="Toolbar" sketch:type="MSArtboardGroup" transform="translate(-26.000000, -14.000000)" fill="#63B0CD">
            <g sketch:type="MSLayerGroup" id="Buttons">
                <g transform="translate(26.000000, 10.000000)" sketch:type="MSShapeGroup">
                    <path d="M15,13.5 L15,6.50050165 C15,5.12537944 13.8807119,4 12.5,4 C11.1096621,4 10,5.11951272 10,6.50050165 L10,13.5 L2.50050165,13.5 C1.12537944,13.5 0,14.6192881 0,16 C0,17.3903379 1.11951272,18.5 2.50050165,18.5 L10,18.5 L10,25.4994984 C10,26.8746206 11.1192881,28 12.5,28 C13.8903379,28 15,26.8804873 15,25.4994984 L15,18.5 L21.4994984,18.5 C22.8746206,18.5 24,17.3807119 24,16 C24,14.6096621 22.8804873,13.5 21.4994984,13.5 L15,13.5 Z" id="Plus"></path>
                </g>
            </g>
        </g>
    </g>
</svg>