<?xml version="1.0" encoding="UTF-8" standalone="no"?>
<svg width="19px" height="27px" viewBox="0 0 19 27" version="1.1" xmlns="http://www.w3.org/2000/svg" xmlns:xlink="http://www.w3.org/1999/xlink" xmlns:sketch="http://www.bohemiancoding.com/sketch/ns">
    <!-- Generator: Sketch 3.3.3 (12072) - http://www.bohemiancoding.com/sketch -->
    <title>Search</title>
    <desc>Created with Sketch.</desc>
    <defs></defs>
    <g id="Components" stroke="none" stroke-width="1" fill="none" fill-rule="evenodd" sketch:type="MSPage">
        <g id="Header" sketch:type="MSArtboardGroup" transform="translate(-327.000000, -12.000000)" fill="#FAFAFA">
            <g id="Search" sketch:type="MSLayerGroup" transform="translate(327.000000, 12.000000)">
                <path d="M9.4369836,17.9549819 C13.9937934,17.9549819 17.6878176,14.2609577 17.6878176,9.70414786 C17.6878176,5.14733806 13.9937934,1.45331385 9.4369836,1.45331385 C4.8801738,1.45331385 1.18614959,5.14733806 1.18614959,9.70414786 C1.18614959,14.2609577 4.8801738,17.9549819 9.4369836,17.9549819 L9.4369836,17.9549819 L9.4369836,17.9549819 Z M9.4369836,14.9549819 C6.53702805,14.9549819 4.18614959,12.6041034 4.18614959,9.70414786 C4.18614959,6.80419231 6.53702805,4.45331385 9.4369836,4.45331385 C12.3369391,4.45331385 14.6878176,6.80419231 14.6878176,9.70414786 C14.6878176,12.6041034 12.3369391,14.9549819 9.4369836,14.9549819 Z M8.55898442,17.9088177 L6.03959979,24.4720391 C5.64616063,25.4969831 4.50444038,26.0120308 3.47355444,25.6163108 C2.44980588,25.2233305 1.93924273,24.0728244 2.33227833,23.0489317 L4.82760148,16.5483926 C5.91506785,17.2822068 7.18685775,17.7636774 8.55898442,17.9088177 L8.55898442,17.9088177 Z" id="Shape" sketch:type="MSShapeGroup"></path>
            </g>
        </g>
    </g>
</svg>