<?xml version="1.0" encoding="UTF-8" standalone="no"?>
<svg width="30px" height="36px" viewBox="0 0 30 36" version="1.1" xmlns="http://www.w3.org/2000/svg" xmlns:xlink="http://www.w3.org/1999/xlink" xmlns:sketch="http://www.bohemiancoding.com/sketch/ns">
    <!-- Generator: Sketch 3.3.3 (12072) - http://www.bohemiancoding.com/sketch -->
    <title>File</title>
    <desc>Created with Sketch.</desc>
    <defs></defs>
    <g id="Components" stroke="none" stroke-width="1" fill="none" fill-rule="evenodd" sketch:type="MSPage">
        <g id="File" sketch:type="MSArtboardGroup" transform="translate(-17.000000, -16.000000)" fill="#5EBEC2">
            <g sketch:type="MSLayerGroup" transform="translate(17.000000, 16.000000)" id="Rectangle-28">
                <path d="M0,3.99017859 C0,1.7864638 1.78679466,0 3.9992748,0 L26.0007252,0 C28.2094637,0 30,1.7852456 30,3.99017859 L30,32.0098214 C30,34.2135362 28.2132053,36 26.0007252,36 L3.9992748,36 C1.79053632,36 0,34.2147544 0,32.0098214 L0,3.99017859 L0,3.99017859 Z M6.36363636,9.9 C6.36363636,9.40294373 6.75685482,9 7.26797379,9 L22.7320262,9 C23.231478,9 23.6363636,9.39947834 23.6363636,9.9 C23.6363636,10.3970563 23.2431452,10.8 22.7320262,10.8 L7.26797379,10.8 C6.76852202,10.8 6.36363636,10.4005217 6.36363636,9.9 L6.36363636,9.9 Z M6.36363636,15.93 C6.36363636,15.4329437 6.75685482,15.03 7.26797379,15.03 L22.7320262,15.03 C23.231478,15.03 23.6363636,15.4294783 23.6363636,15.93 C23.6363636,16.4270563 23.2431452,16.83 22.7320262,16.83 L7.26797379,16.83 C6.76852202,16.83 6.36363636,16.4305217 6.36363636,15.93 L6.36363636,15.93 Z M6.36363636,21.6 C6.36363636,21.1029437 6.75685482,20.7 7.26797379,20.7 L22.7320262,20.7 C23.231478,20.7 23.6363636,21.0994783 23.6363636,21.6 C23.6363636,22.0970563 23.2431452,22.5 22.7320262,22.5 L7.26797379,22.5 C6.76852202,22.5 6.36363636,22.1005217 6.36363636,21.6 L6.36363636,21.6 Z M6.36363636,27 C6.36363636,26.5029437 6.75685482,26.1 7.26797379,26.1 L22.7320262,26.1 C23.231478,26.1 23.6363636,26.4994783 23.6363636,27 C23.6363636,27.4970563 23.2431452,27.9 22.7320262,27.9 L7.26797379,27.9 C6.76852202,27.9 6.36363636,27.5005217 6.36363636,27 L6.36363636,27 Z" sketch:type="MSShapeGroup"></path>
            </g>
        </g>
    </g>
</svg>